<?xml version="1.0" encoding="UTF-8" standalone="no"?>
<svg
   xmlns:dc="http://purl.org/dc/elements/1.1/"
   xmlns:cc="http://creativecommons.org/ns#"
   xmlns:rdf="http://www.w3.org/1999/02/22-rdf-syntax-ns#"
   xmlns:svg="http://www.w3.org/2000/svg"
   xmlns="http://www.w3.org/2000/svg"
   xmlns:sodipodi="http://sodipodi.sourceforge.net/DTD/sodipodi-0.dtd"
   xmlns:inkscape="http://www.inkscape.org/namespaces/inkscape"
   width="127.33318mm"
   height="42.241962mm"
   viewBox="0 0 127.33318 42.241962"
   version="1.1"
   id="svg8"
   inkscape:version="1.0.1 (3bc2e813f5, 2020-09-07)"
   sodipodi:docname="AboutUs_opera_house.svg">
  <defs
     id="defs2">
    <clipPath
       clipPathUnits="userSpaceOnUse"
       id="clipPath26">
      <path
         d="M 0,0 H 500 V 500 H 0 Z"
         id="path24" />
    </clipPath>
    <linearGradient
       x1="0"
       y1="0"
       x2="1"
       y2="0"
       gradientUnits="userSpaceOnUse"
       gradientTransform="matrix(0,-500,-500,0,250,556)"
       spreadMethod="pad"
       id="linearGradient40">
      <stop
         style="stop-opacity:1;stop-color:#f7d260"
         offset="0"
         id="stop32" />
      <stop
         style="stop-opacity:1;stop-color:#f7b360"
         offset="0.7925"
         id="stop34" />
      <stop
         style="stop-opacity:1;stop-color:#f7b260"
         offset="0.9175"
         id="stop36" />
      <stop
         style="stop-opacity:1;stop-color:#f7b260"
         offset="1"
         id="stop38" />
    </linearGradient>
    <clipPath
       clipPathUnits="userSpaceOnUse"
       id="clipPath50">
      <path
         d="M 0,0 H 500 V 500 H 0 Z"
         id="path48" />
    </clipPath>
    <clipPath
       clipPathUnits="userSpaceOnUse"
       id="clipPath58">
      <path
         d="M 3.05176e-5,335.575 H 500 V 159.425 H 3.05176e-5 Z"
         id="path56" />
    </clipPath>
    <clipPath
       clipPathUnits="userSpaceOnUse"
       id="clipPath74">
      <path
         d="M 3.05176e-5,282.575 H 500 V 106.425 H 3.05176e-5 Z"
         id="path72" />
    </clipPath>
    <clipPath
       clipPathUnits="userSpaceOnUse"
       id="clipPath92">
      <path
         d="M 0,0 H 500 V 500 H 0 Z"
         id="path90" />
    </clipPath>
    <clipPath
       clipPathUnits="userSpaceOnUse"
       id="clipPath100">
      <path
         d="M 28.4782,167.371 H 471.522 V 38.1219 H 28.4782 Z"
         id="path98" />
    </clipPath>
    <clipPath
       clipPathUnits="userSpaceOnUse"
       id="clipPath338">
      <path
         d="M -24.0383,401.456 H 208.199 V 379.599 H -24.0383 Z"
         id="path336" />
    </clipPath>
    <clipPath
       clipPathUnits="userSpaceOnUse"
       id="clipPath354">
      <path
         d="M 303.962,372.133 H 536.199 V 350.277 H 303.962 Z"
         id="path352" />
    </clipPath>
    <clipPath
       clipPathUnits="userSpaceOnUse"
       id="clipPath370">
      <path
         d="M 180.519,469.278 H 499.922 V 447.421 H 180.519 Z"
         id="path368" />
    </clipPath>
    <clipPath
       clipPathUnits="userSpaceOnUse"
       id="clipPath386">
      <path
         d="M 139.009,449.854 H 373.215 V 309.527 H 139.009 Z"
         id="path384" />
    </clipPath>
    <clipPath
       clipPathUnits="userSpaceOnUse"
       id="clipPath434">
      <path
         d="M 0,500 H 500 V 0 H 0 Z"
         id="path432" />
    </clipPath>
  </defs>
  <sodipodi:namedview
     id="base"
     pagecolor="#ffffff"
     bordercolor="#666666"
     borderopacity="1.0"
     inkscape:pageopacity="0.0"
     inkscape:pageshadow="2"
     inkscape:zoom="0.35"
     inkscape:cx="1240.5562"
     inkscape:cy="191.5684"
     inkscape:document-units="mm"
     inkscape:current-layer="layer1"
     inkscape:document-rotation="0"
     showgrid="false"
     inkscape:window-width="1920"
     inkscape:window-height="1017"
     inkscape:window-x="-8"
     inkscape:window-y="227"
     inkscape:window-maximized="1"
     fit-margin-top="0"
     fit-margin-left="0"
     fit-margin-right="0"
     fit-margin-bottom="0" />
  <metadata
     id="metadata5">
    <rdf:RDF>
      <cc:Work
         rdf:about="">
        <dc:format>image/svg+xml</dc:format>
        <dc:type
           rdf:resource="http://purl.org/dc/dcmitype/StillImage" />
        <dc:title></dc:title>
      </cc:Work>
    </rdf:RDF>
  </metadata>
  <g
     inkscape:label="Layer 1"
     inkscape:groupmode="layer"
     id="layer1"
     transform="translate(261.19134,-34.131292)">
    <g
       id="g18"
       inkscape:label="1921859"
       transform="matrix(0.88950396,0,0,-0.88950396,-193.27182,357.3135)">
      <g
         id="g86"
         transform="matrix(0.36995792,0,0,0.36995792,126.70509,266.01289)"
         inkscape:export-xdpi="199.985"
         inkscape:export-ydpi="199.985">
        <g
           id="g88"
           clip-path="url(#clipPath92)"
           transform="translate(-612.74788,-30.594901)">
          <g
             id="g222"
             transform="translate(246.168,248.2627)">
            <path
               d="m 0,0 -34.646,-28.781 c -18.131,49.262 -70.06,70.906 -70.06,70.906 C -32.924,59.75 0,0 0,0"
               style="fill:#ffffff;fill-opacity:1;fill-rule:nonzero;stroke:none"
               id="path224" />
          </g>
          <g
             id="g226"
             transform="translate(211.5215,219.4814)">
            <path
               d="m 0,0 -20.373,-16.913 c 0,0 -41.824,68.377 -49.686,87.82 0,0 51.929,-21.644 70.059,-70.907"
               style="fill:#b2b2b2;fill-opacity:1;fill-rule:nonzero;stroke:none"
               id="path228" />
          </g>
          <g
             id="g230"
             transform="translate(207.8711,222.7764)">
            <path
               d="m 0,0 -10.815,-14.083 -4.677,-6.098 h -1.763 c -3.131,9.038 -20.906,54.035 -69.663,75.077 0,0 59.313,-2.01 86.918,-54.896"
               style="fill:#eaeaea;fill-opacity:1;fill-rule:nonzero;stroke:none"
               id="path232" />
          </g>
          <g
             id="g234"
             transform="translate(190.6157,202.5957)">
            <path
               d="M 0,0 -36.506,0.123 C -38.557,27.154 -69.663,75.077 -69.663,75.077 -20.905,54.035 -3.131,9.038 0,0"
               style="fill:#9d9d9c;fill-opacity:1;fill-rule:nonzero;stroke:none"
               id="path236" />
          </g>
          <g
             id="g238"
             transform="translate(167.0986,202.8174)">
            <path
               d="m 0,0 -11.314,-1.508 -8.783,-1.878 h -1.217 c -2.161,6.237 -14.427,37.289 -48.075,51.811 0,0 50.019,5.319 69.389,-48.425"
               style="fill:#ffffff;fill-opacity:1;fill-rule:nonzero;stroke:none"
               id="path240" />
          </g>
          <g
             id="g242"
             transform="translate(145.7842,199.4316)">
            <path
               d="m 0,0 -34.744,1.564 c -1.415,18.655 -13.33,50.247 -13.33,50.247 C -14.427,37.289 -2.161,6.236 0,0"
               style="fill:#b2b2b2;fill-opacity:1;fill-rule:nonzero;stroke:none"
               id="path244" />
          </g>
          <g
             id="g246"
             transform="translate(239.564,240.1338)">
            <path
               d="m 0,0 23.585,-30.616 8.781,-3.064 4.004,-1.041 c 3.855,7.81 25.027,46.444 71.47,59.916 C 107.84,25.195 30.951,44.646 0,0"
               style="fill:#ffffff;fill-opacity:1;fill-rule:nonzero;stroke:none"
               id="path248" />
          </g>
          <g
             id="g250"
             transform="translate(270.6699,203.3887)">
            <path
               d="M 0,0 51.008,-1.648 C 48.538,27.004 76.734,61.94 76.734,61.94 30.291,48.468 3.855,7.81 0,0"
               style="fill:#b2b2b2;fill-opacity:1;fill-rule:nonzero;stroke:none"
               id="path252" />
          </g>
          <g
             id="g254"
             transform="translate(445.167,234.3232)">
            <path
               d="m 0,0 c 0,0 -53.508,25.13 -95.26,-26.031 v -7.296 l 47.63,1.727 c 0,0 12.822,24.023 47.63,31.6"
               style="fill:#ffffff;fill-opacity:1;fill-rule:nonzero;stroke:none"
               id="path256" />
          </g>
          <g
             id="g258"
             transform="translate(445.167,234.3232)">
            <path
               d="m 0,0 c 0,0 -21.021,-11.836 -25.807,-31.754 h -23.699 c 0,0 17.66,33.52 49.506,31.754"
               style="fill:#b2b2b2;fill-opacity:1;fill-rule:nonzero;stroke:none"
               id="path260" />
          </g>
          <g
             id="g262"
             transform="translate(191.0259,202.5693)">
            <path
               d="M 0,0 C 0,0 16.407,28.671 55.146,45.534 V 0.465 c 0,0 -10.482,14.534 -21.42,16.356 C 22.788,18.645 0,0 0,0"
               style="fill:#eaeaea;fill-opacity:1;fill-rule:nonzero;stroke:none"
               id="path264" />
          </g>
          <g
             id="g266"
             transform="translate(301.3193,202.7236)">
            <path
               d="M 0,0 C 0,0 -16.407,28.671 -55.147,45.534 V 0.465 c 0,0 10.483,14.533 21.42,16.356 C -22.788,18.645 0,0 0,0"
               style="fill:#eaeaea;fill-opacity:1;fill-rule:nonzero;stroke:none"
               id="path268" />
          </g>
          <g
             id="g270"
             transform="translate(301.1914,202.5693)">
            <path
               d="m 0,0 h -110.038 c 2.366,1.901 23.189,18.349 33.498,16.64 10.938,-1.819 21.425,-16.353 21.425,-16.353 v 0.15 c 0,0 10.487,14.535 21.426,16.353 C -22.97,18.582 -0.875,0.711 0,0"
               style="fill:#b2b2b2;fill-opacity:1;fill-rule:nonzero;stroke:none"
               id="path272" />
          </g>
          <g
             id="g274"
             transform="translate(387.5713,201.8047)">
            <path
               d="M 0,0 C 0,0 -18.633,43.734 -78.534,37.41 -56.4,25.788 -44.785,14.789 -40.167,-0.154 Z"
               style="fill:#eaeaea;fill-opacity:1;fill-rule:nonzero;stroke:none"
               id="path276" />
          </g>
          <g
             id="g278"
             transform="translate(309.0371,239.2148)">
            <path
               d="m 0,0 c 0,0 14.956,-18.403 11.025,-37.41 l 31.96,-0.154 C 42.985,-37.564 31.702,1.367 0,0"
               style="fill:#9d9d9c;fill-opacity:1;fill-rule:nonzero;stroke:none"
               id="path280" />
          </g>
          <path
             d="M 431.21,181.684 H 83.467 v 9.115 H 431.21 Z"
             style="fill:#bc611d;fill-opacity:1;fill-rule:nonzero;stroke:none"
             id="path282" />
          <path
             d="M 431.21,202.747 H 99.419 V 190.799 H 431.21 Z"
             style="fill:#db902e;fill-opacity:1;fill-rule:nonzero;stroke:none"
             id="path284" />
          <path
             d="M 450.808,165.276 H 63.87 v 16.407 h 386.938 z"
             style="fill:#934e11;fill-opacity:1;fill-rule:nonzero;stroke:none"
             id="path286" />
          <g
             id="g288"
             transform="translate(319.9336,183.9395)">
            <path
               d="m 0,0 v 0 c -1.271,0 -2.302,1.03 -2.302,2.302 0,1.271 1.031,2.302 2.302,2.302 1.271,0 2.303,-1.031 2.303,-2.302 C 2.303,1.03 1.271,0 0,0"
               style="fill:#f39200;fill-opacity:1;fill-rule:nonzero;stroke:none"
               id="path290" />
          </g>
          <g
             id="g292"
             transform="translate(310.7256,183.9395)">
            <path
               d="m 0,0 v 0 c -1.271,0 -2.303,1.03 -2.303,2.302 0,1.271 1.032,2.302 2.303,2.302 1.271,0 2.302,-1.031 2.302,-2.302 C 2.302,1.03 1.271,0 0,0"
               style="fill:#f39200;fill-opacity:1;fill-rule:nonzero;stroke:none"
               id="path294" />
          </g>
          <g
             id="g296"
             transform="translate(329.1426,183.9395)">
            <path
               d="m 0,0 v 0 c -1.271,0 -2.303,1.03 -2.303,2.302 0,1.271 1.032,2.302 2.303,2.302 1.271,0 2.302,-1.031 2.302,-2.302 C 2.302,1.03 1.271,0 0,0"
               style="fill:#f39200;fill-opacity:1;fill-rule:nonzero;stroke:none"
               id="path298" />
          </g>
          <g
             id="g300"
             transform="translate(338.3506,183.9395)">
            <path
               d="m 0,0 v 0 c -1.271,0 -2.302,1.03 -2.302,2.302 0,1.271 1.031,2.302 2.302,2.302 1.271,0 2.302,-1.031 2.302,-2.302 C 2.302,1.03 1.271,0 0,0"
               style="fill:#f39200;fill-opacity:1;fill-rule:nonzero;stroke:none"
               id="path302" />
          </g>
          <g
             id="g304"
             transform="translate(347.5586,183.9395)">
            <path
               d="m 0,0 v 0 c -1.271,0 -2.302,1.03 -2.302,2.302 0,1.271 1.031,2.302 2.302,2.302 1.271,0 2.303,-1.031 2.303,-2.302 C 2.303,1.03 1.271,0 0,0"
               style="fill:#f39200;fill-opacity:1;fill-rule:nonzero;stroke:none"
               id="path306" />
          </g>
          <g
             id="g308"
             transform="translate(356.7676,183.9395)">
            <path
               d="m 0,0 v 0 c -1.271,0 -2.303,1.03 -2.303,2.302 0,1.271 1.032,2.302 2.303,2.302 1.271,0 2.302,-1.031 2.302,-2.302 C 2.302,1.03 1.271,0 0,0"
               style="fill:#f39200;fill-opacity:1;fill-rule:nonzero;stroke:none"
               id="path310" />
          </g>
          <g
             id="g312"
             transform="translate(365.9756,183.9395)">
            <path
               d="m 0,0 v 0 c -1.271,0 -2.302,1.03 -2.302,2.302 0,1.271 1.031,2.302 2.302,2.302 1.271,0 2.302,-1.031 2.302,-2.302 C 2.302,1.03 1.271,0 0,0"
               style="fill:#f39200;fill-opacity:1;fill-rule:nonzero;stroke:none"
               id="path314" />
          </g>
          <g
             id="g316"
             transform="translate(375.1836,183.9395)">
            <path
               d="m 0,0 v 0 c -1.271,0 -2.302,1.03 -2.302,2.302 0,1.271 1.031,2.302 2.302,2.302 1.271,0 2.303,-1.031 2.303,-2.302 C 2.303,1.03 1.271,0 0,0"
               style="fill:#f39200;fill-opacity:1;fill-rule:nonzero;stroke:none"
               id="path318" />
          </g>
          <g
             id="g320"
             transform="translate(384.3926,183.9395)">
            <path
               d="m 0,0 v 0 c -1.271,0 -2.302,1.03 -2.302,2.302 0,1.271 1.031,2.302 2.302,2.302 1.271,0 2.302,-1.031 2.302,-2.302 C 2.302,1.03 1.271,0 0,0"
               style="fill:#f39200;fill-opacity:1;fill-rule:nonzero;stroke:none"
               id="path322" />
          </g>
          <g
             id="g324"
             transform="translate(393.6006,183.9395)">
            <path
               d="m 0,0 v 0 c -1.271,0 -2.302,1.03 -2.302,2.302 0,1.271 1.031,2.302 2.302,2.302 1.271,0 2.303,-1.031 2.303,-2.302 C 2.303,1.03 1.271,0 0,0"
               style="fill:#f39200;fill-opacity:1;fill-rule:nonzero;stroke:none"
               id="path326" />
          </g>
          <g
             id="g328"
             transform="translate(402.8096,183.9395)">
            <path
               d="m 0,0 v 0 c -1.271,0 -2.303,1.03 -2.303,2.302 0,1.271 1.032,2.302 2.303,2.302 1.271,0 2.302,-1.031 2.302,-2.302 C 2.302,1.03 1.271,0 0,0"
               style="fill:#f39200;fill-opacity:1;fill-rule:nonzero;stroke:none"
               id="path330" />
          </g>
          <g
             id="g348">
            <g
               id="g350" />
          </g>
          <g
             id="g364">
            <g
               id="g366" />
          </g>
          <g
             id="g380">
            <g
               id="g382" />
          </g>
        </g>
      </g>
      <g
         id="g428" />
    </g>
  </g>
</svg>
